<svg width="1364" height="147" viewBox="0 0 1364 147" fill="none" xmlns="http://www.w3.org/2000/svg">
<path fill-rule="evenodd" clip-rule="evenodd" d="M457 146.082L481.942 141.547C507.641 137.012 557.526 127.942 608.167 100.732C658.807 73.5221 708.693 28.1721 759.333 10.0321C809.974 -8.10787 859.859 0.962128 910.5 19.1021C961.141 37.2421 1011.03 64.4521 1061.67 68.9871C1112.31 73.5221 1162.19 55.3821 1212.83 46.3121C1263.47 37.2421 1313.36 37.2421 1339.06 37.2421H1364V146.082H1339.06C1313.36 146.082 1263.47 146.082 1212.83 146.082C1162.19 146.082 1112.31 146.082 1061.67 146.082C1011.03 146.082 961.141 146.082 910.5 146.082C859.859 146.082 809.974 146.082 759.333 146.082C708.693 146.082 658.807 146.082 608.167 146.082C557.526 146.082 507.641 146.082 481.942 146.082H457Z" fill="#00C041" fill-opacity="0.8"/>
<path fill-rule="evenodd" clip-rule="evenodd" d="M-49.1667 77.469L28.6111 63.8805C106.389 50.292 261.944 23.1149 417.5 36.7034C573.056 50.292 728.611 104.646 806.389 131.823L884.167 159H806.389C728.611 159 573.056 159 417.5 159C261.944 159 106.389 159 28.6111 159H-49.1667V77.469Z" fill="#00C041" fill-opacity="0.6"/>
</svg>
